<?xml version="1.0" encoding="utf-8"?>
<!-- Generator: Adobe Illustrator 26.2.1, SVG Export Plug-In . SVG Version: 6.00 Build 0)  -->
<svg version="1.1" id="Layer_1" xmlns="http://www.w3.org/2000/svg" xmlns:xlink="http://www.w3.org/1999/xlink" x="0px" y="0px"
	 viewBox="0 0 220 43" style="enable-background:new 0 0 220 43;" xml:space="preserve">
<style type="text/css">
	.st0{fill:url(#SVGID_1_);}
	.st1{fill:#25BBE1;}
	.st2{fill:#1D8EC9;}
	.st3{enable-background:new    ;}
</style>
<g>
	<g>
		<g>
			<linearGradient id="SVGID_1_" gradientUnits="userSpaceOnUse" x1="20.4874" y1="32.2786" x2="22.5837" y2="7.6287">
				<stop  offset="5.692403e-02" style="stop-color:#1BBCD1"/>
				<stop  offset="1" style="stop-color:#1B8FCA"/>
			</linearGradient>
			<path class="st0" d="M23.6,31.8c-5.6,0-10.1-4.7-9.7-10.3c0.3-5,4.6-9,9.6-9.1c2.6,0,4.9,0.9,6.6,2.6l4.3-4.4
				C31.3,7.6,27.1,6,22.4,6.3C14.7,6.8,8.3,13.1,7.7,20.9C7,30.2,14.3,38,23.5,38c4,0,7.8-1.5,10.5-4c0.1-0.1,0.1-0.3,0-0.5l-3.8-4
				c-0.1-0.1-0.3-0.1-0.5,0C28.2,31,25.9,31.8,23.6,31.8"/>
		</g>
	</g>
	<g>
		<g>
			<path class="st1" d="M45.8,5.5L45.8,5.5c-0.7-0.3-1.4-0.4-2.1-0.5c-1.6-0.2-3.3,0.1-4.8,0.8c-1.1,0.5-2,1.3-2.9,2.2l-11,12.3
				c-0.5,0.5-1.3,0.6-1.8,0.2l-2-1.4c-0.9-0.7-2-0.8-2.9-0.1L16.5,20c-0.3,0.2-0.3,0.6-0.1,0.8l4.1,4.1c2.4,2.4,6.1,2.4,8.5,0l0,0
				l0,0L46.2,7.8C46.9,7.1,46.7,5.9,45.8,5.5"/>
		</g>
	</g>
	<g>
		<g>
			<path class="st2" d="M45,22.7c0-5.6,4.2-9.9,9.9-9.9c3.5,0,6.5,1.7,8.2,4.4l-3.8,2.2c-0.9-1.4-2.5-2.4-4.4-2.4
				c-3.4,0-5.5,2.2-5.5,5.7s2.2,5.7,5.5,5.7c1.9,0,3.6-0.9,4.4-2.4l3.8,2.2c-1.6,2.7-4.7,4.4-8.2,4.4C49.1,32.5,45,28.3,45,22.7"/>
		</g>
	</g>
	<g>
		<g>
			<polygon class="st2" points="77,28 77,32.2 65.8,32.2 65.8,13.1 70.2,13.1 70.2,28 			"/>
		</g>
	</g>
	<g>
		<g>
			<path class="st2" d="M91.9,29.2h-7.1l-1,3H79L85.5,13h5.5l6.5,19.1h-4.7L91.9,29.2z M90.6,25.1l-2.2-7l-2.2,7H90.6z"/>
		</g>
	</g>
	<g>
		<g>
			<path class="st2" d="M106.4,25.9h-2v6.3H100V13h7.6c3.6,0,6.5,2.9,6.5,6.5c0,2.4-1.4,4.5-3.5,5.5l4.1,7h-4.7L106.4,25.9z
				 M104.3,22.1h3.3c1.2,0,2.2-1.1,2.2-2.4s-1-2.4-2.2-2.4h-3.3V22.1z"/>
		</g>
	</g>
	<g>
		<g>
			<rect x="117.4" y="13.1" class="st2" width="4.3" height="19.1"/>
		</g>
	</g>
	<g>
		<g>
			<polygon class="st2" points="138.5,17.3 133.6,17.3 133.6,32.2 129.2,32.2 129.2,17.3 124.3,17.3 124.3,13.1 138.5,13.1 			"/>
		</g>
	</g>
	<g>
		<g>
			<polygon class="st2" points="151.4,24.8 151.4,32.2 146.9,32.2 146.9,24.8 140.6,13.1 145.5,13.1 149.1,20.5 152.8,13.1 
				157.7,13.1 			"/>
		</g>
	</g>
	<g>
		<g>
			<g>
				<g class="st3">
					<path class="st2" d="M171.1,17.1v15.5h-4.7V17.1h-5.5v-4h15.8v4H171.1z"/>
					<path class="st2" d="M189.6,17.1v15.5h-4.7V17.1h-5.5v-4h15.8v4H189.6z"/>
					<path class="st2" d="M210.2,18.2c-0.8-1.1-2.2-1.7-3.5-1.7c-1.2,0-2.8,0.4-2.8,2c0,1.3,1.2,1.7,3,2.3c2.6,0.9,6.1,2,6.1,5.9
						c0,4.5-3.6,6.5-7.5,6.5c-2.8,0-5.6-1.1-7.3-2.8l3.1-3.2c0.9,1.2,2.7,2.1,4.2,2.1c1.4,0,2.7-0.5,2.7-2.1c0-1.5-1.5-2-4.1-2.8
						c-2.5-0.8-5-2.1-5-5.6c0-4.3,4-6.1,7.6-6.1c2.2,0,4.7,0.9,6.4,2.4L210.2,18.2z"/>
				</g>
			</g>
		</g>
	</g>
</g>
</svg>
